<svg xmlns:rdf="http://www.w3.org/1999/02/22-rdf-syntax-ns#" xmlns="http://www.w3.org/2000/svg" xmlns:cc="http://creativecommons.org/ns#" xmlns:dc="http://purl.org/dc/elements/1.1/" viewBox="0 0 100 125" version="1.1" x="0px" y="0px"><path style="color:#fff;text-indent:0;block-progression:tb;text-decoration-line:none;text-transform:none;
fill:#fff;" d="m4.9414 17.227v2.062 63.875 2.063h1.9063 57.218l0.563-4h-55.688l0.0004-60h82v60h-1.812l0.875 4h3.031 1.906v-2.063-63.875-2.062h-1.906-86.187-1.9066zm18.981 7.681c-0.603 0-1.25 0.105-1.922 0.307l-0.025 0.008-0.024 0.007c-1.783 0.623-4.818 3.014-4.338 7.749-0.014 0.016-0.027 0.032-0.039 0.048-0.497 0.626-0.42 1.476-0.269 2.192 0.042 1.474 0.119 5.645-0.282 7.732-0.136 0.028-0.272 0.056-0.402 0.08-1.523 0.272-3.414 0.96-4.531 3.905-0.189 0.501-0.122 1.044 0.185 1.49 1.147 1.661 7.194 2.01 12.063 2.01s10.916-0.349 12.062-2.01c0.308-0.446 0.375-0.988 0.186-1.488-1.002-2.641-2.625-3.468-4.047-3.807-1.516-1.642-1.16-8.102-1.16-8.102 0.019-0.108 0.036-0.218 0.049-0.33h0.002s2.078-7.012-3.436-9.523c0 0-0.992-0.236-1.756-0.057-0.524-0.127-1.035-0.211-1.513-0.211-0.142 0-0.274 0.008-0.403 0.018-0.131-0.011-0.266-0.018-0.4-0.018zm16.019 0.131v2h48v-2h-48zm0 5v2h48v-2h-48zm-12.4 0.016c0.213 0.595 0.813 2.086 1.814 3.242v1.379l0.315-1.041c0.009 0.009 0.02 0.018 0.029 0.027-0.004 0.02-0.006 0.037-0.01 0.057 0 0 0.022-0.01 0.049-0.02 0.153 0.147 0.317 0.28 0.485 0.405 0.025 0.216 0.001 0.538-0.11 1.013-0.371 1.601-1.005 1.699-1.154 1.699-0.02 0-0.031-0.002-0.031-0.002s-0.081 1.5-1.461 3.118c0 0.012-0.002 0.026-0.002 0.039-1.075 1.093-2.17 1.623-3.27 1.582-1.366-0.057-2.448-0.99-2.984-1.555-0.001-0.008 0-0.021 0-0.029-1.409-1.633-1.494-3.155-1.494-3.155h-0.031c-0.082 0-0.311-0.038-0.561-0.33l-0.291-0.459c-0.109-0.23-0.213-0.523-0.303-0.908-0.201-0.866-0.115-1.221 0.031-1.359 0.3 0.02 0.593 0.022 0.885 0.012l-0.002 0.009 0.371 1.955 0.405-2.027c0.411-0.051 0.815-0.122 1.207-0.219 1.685-0.42 3.17-1.229 4.291-1.994 0.826-0.563 1.451-1.099 1.822-1.439zm12.4 4.984v2h48v-2h-48zm0 5v2h48v-2h-48zm-12.537 1.541c0.005 0.44 0.033 0.832 0.112 1.041 0.253 0.678 3.136 1.399 4.324 1.611 0.737 0.132 1.586 0.364 2.349 1.106-3.368 1.185-6.391 1.684-9.017 1.812l-0.795 0.795-0.758-0.757c-5.722-0.038-9.126-1.847-9.133-1.85 0.764-0.742 1.613-0.974 2.35-1.106 1.187-0.211 4.071-0.933 4.324-1.611 0.078-0.204 0.104-0.582 0.11-1.01 0.726 0.545 1.698 1.061 2.867 1.112 0.064 0.003 0.129 0.004 0.193 0.004 1.056 0 2.084-0.391 3.074-1.147zm12.537 3.459v2h28v-2h-28zm33.438 0.438c-0.184-0.011-0.381-0.003-0.563 0.031-1.389 0.255-2.318 1.901-3.562 2.656-0.045 0.028-0.109 0.038-0.156 0.063-1.269 0.687-3.264 0.522-4.313 1.625-0.34 0.355-0.519 0.823-0.656 1.312-0.287 1.024-0.327 2.213-0.75 3.094-0.053 0.111-0.091 0.236-0.156 0.344-0.639 1.034-1.8 1.918-2.219 3-0.066 0.167-0.132 0.32-0.156 0.5-0.13 0.971 0.432 1.94 0.906 2.906 0.242 0.491 0.473 0.978 0.562 1.469 0.086 0.473 0.049 1.001 0 1.531-0.101 1.08-0.289 2.212 0.188 3.094 0.067 0.123 0.128 0.235 0.219 0.343 0.665 0.803 1.901 1.221 2.875 1.844 0.234 0.15 0.463 0.316 0.656 0.5 0.202 0.192 0.394 0.386 0.562 0.625 0.748 1.062 1.25 2.49 2.313 3 1.349 0.646 3.174-0.253 4.625-0.062 1.452 0.193 2.963 1.487 4.406 1.25 0.013-0.002 0.017 0.001 0.031 0 1.152-0.212 1.974-1.395 2.938-2.219 0.24-0.207 0.519-0.39 0.781-0.531 1.271-0.688 3.264-0.523 4.313-1.625 1.048-1.102 0.751-3.073 1.375-4.375 0.162-0.343 0.398-0.686 0.656-1 0.761-0.927 1.764-1.76 1.906-2.844 0.196-1.467-1.201-2.951-1.469-4.406-0.262-1.442 0.526-3.279-0.187-4.594-0.686-1.268-2.648-1.639-3.75-2.688-1.103-1.049-1.573-3.002-2.875-3.625-0.231-0.111-0.494-0.154-0.75-0.187-0.942-0.124-1.98 0.171-2.969 0.25-0.3 0.023-0.595 0.036-0.875 0-1.284-0.17-2.621-1.207-3.906-1.281zm-37.973 1.81c0.012 0.03 0.026 0.052 0.037 0.082 0.042 0.11 0.018 0.215-0.037 0.315v-0.397zm4.535 2.752v2h22v-2h-22zm35.563 0.375c0.917 0 1.817 0.136 2.656 0.375 1.092 0.31 2.074 0.82 2.969 1.469 2.42 1.752 4.031 4.565 4.031 7.781 0 0.954-0.147 1.878-0.406 2.75-0.612 2.063-1.923 3.832-3.625 5.063-0.898 0.65-1.878 1.158-2.969 1.468-0.84 0.24-1.739 0.375-2.656 0.375-0.387 0-0.751-0.018-1.125-0.062-1.912-0.226-3.663-1.011-5.063-2.188-0.867-0.728-1.62-1.604-2.187-2.593-0.155-0.268-0.278-0.56-0.406-0.844-0.42-0.931-0.708-1.94-0.813-3-0.033-0.317-0.031-0.645-0.031-0.969 0-0.853 0.103-1.649 0.312-2.437 0.287-1.086 0.753-2.101 1.375-3 1.04-1.509 2.509-2.719 4.219-3.438 0.812-0.341 1.687-0.58 2.594-0.687 0.374-0.045 0.738-0.063 1.125-0.063zm-52.074 3.055c-0.485-0.005-0.88 0.39-0.881 0.881 0.001 0.483 0.396 0.877 0.881 0.879 0.489-0.002 0.885-0.396 0.881-0.879 0.004-0.491-0.392-0.886-0.881-0.881zm2.347 0c-0.489-0.005-0.882 0.39-0.879 0.881-0.003 0.483 0.39 0.877 0.879 0.879 0.486-0.002 0.881-0.396 0.881-0.879 0-0.491-0.395-0.886-0.881-0.881zm14.164 1.57v2h19v-2h-19zm-19.255 0.522c-1.841-0.002-3.192 1.473-3.19 3.076v11.369c-0.002 1.557 1.217 2.832 2.438 3.035l-3.663 5.5h2.12l2.615-3.853h3.598 3.599l2.627 3.853h2.106l-3.663-5.5c1.222-0.203 2.441-1.478 2.438-3.035v-11.369c0.003-1.603-1.348-3.078-3.178-3.076h-3.916-3.931zm2.375 0.652h1.543 1.544c0.281 0.004 0.524 0.238 0.524 0.523v0.893c0 0.284-0.23 0.524-0.524 0.523h-1.544-1.543c-0.293 0.001-0.523-0.239-0.524-0.523v-0.893c0.001-0.285 0.244-0.519 0.524-0.523zm-2.272 2.551h3.815 3.814c1.04 0.002 1.591 0.744 1.596 1.595v2.041c0.003 0.989-0.715 1.591-1.596 1.596h-3.814-3.815c-0.88-0.005-1.597-0.607-1.596-1.596v-2.041c0.006-0.851 0.557-1.594 1.596-1.595zm19.152 1.275v2h19v-2h-19zm0 5v2h20v-2h-20zm-19.332 3.551c0.775-0.004 1.401 0.62 1.405 1.39-0.003 0.773-0.63 1.397-1.405 1.403-0.767-0.006-1.392-0.63-1.39-1.403-0.002-0.77 0.623-1.394 1.39-1.39zm7.95 0c0.774-0.004 1.4 0.62 1.404 1.39-0.004 0.773-0.63 1.397-1.404 1.403-0.768-0.006-1.393-0.63-1.391-1.403-0.002-0.77 0.623-1.394 1.391-1.39zm11.382 1.449v2h23v-2h-23zm46.532 3.031c-0.45 0.145-0.915 0.22-1.344 0.313-0.563 0.121-1.093 0.25-1.438 0.437-0.165 0.09-0.326 0.225-0.5 0.375l-0.218 1.375-1.344 9.407c0.434 0.125 0.886 0.276 1.219 0.375l5.687 1.656c0.54 0.162 0.902-0.137 0.781-0.688l-2.187-10.093c-0.118-0.552-0.29-1.479-0.406-2.032l-0.219-0.937-0.031-0.188zm-19.875 1.125l-0.094 0.532v0.218l-0.406 2.782-0.063 0.5c-0.08 0.559-0.232 1.473-0.312 2.031l-1.719 12.187c-0.08 0.558 0.266 0.824 0.781 0.594l5.688-2.562c0.513-0.232 1.289-0.117 1.718 0.25l4.75 4.062c0.428 0.366 0.827 0.185 0.907-0.375l1.75-12.187c0.08-0.558 0.199-1.441 0.281-2l0.375-2.5 0.156-1.125 0.031-0.188c-0.111 0.094-0.224 0.195-0.343 0.281-0.481 0.35-1.018 0.632-1.657 0.75-0.209 0.039-0.436 0.063-0.656 0.063-0.417 0-0.833-0.082-1.219-0.188-0.551-0.152-1.051-0.382-1.531-0.593-0.542-0.239-1.056-0.447-1.469-0.5-0.083-0.013-0.179-0.032-0.281-0.032-0.364 0-0.822 0.056-1.281 0.125-0.543 0.085-1.072 0.188-1.656 0.188-0.166 0-0.346-0.018-0.5-0.031-0.488-0.046-0.913-0.154-1.313-0.344-0.27-0.13-0.502-0.289-0.719-0.469-0.34-0.28-0.626-0.591-0.875-0.937-0.118-0.166-0.236-0.362-0.343-0.532zm-26.657 0.844v2h24v-2h-24z"/></svg>