<svg xmlns="http://www.w3.org/2000/svg" xmlns:xlink="http://www.w3.org/1999/xlink" version="1.1" x="0px" y="0px" viewBox="0 0 100 125"
  style="enable-background:new 0 0 100 100;" xml:space="preserve">
  <g>
    <path style="color: #fff; fill: #fff;" d="M79.5,50.9c0.5,0,1-0.2,1.4-0.5l15-13.9c0.8-0.7,0.9-2,0.1-2.8c-0.7-0.8-2-0.9-2.8-0.1L78.7,46.9H57.8v-4.9h21.7   c0.5,0,1-0.2,1.4-0.5l15-13.9c0.6-0.6,0.8-1.4,0.5-2.2c-0.3-0.8-1-1.3-1.9-1.3H73.9c0-0.2,0-0.3-0.1-0.5c-0.3-0.8-1-1.3-1.9-1.3   H44.2c-0.5,0-1,0.2-1.4,0.5l-1.3,1.2h-21c-0.5,0-1,0.2-1.4,0.5l-15,13.9c-0.6,0.6-0.8,1.4-0.5,2.2c0.3,0.8,1,1.3,1.9,1.3H26v4.9   H5.5c-1.1,0-2,0.9-2,2s0.9,2,2,2H26v4.9H5.5c-1.1,0-2,0.9-2,2s0.9,2,2,2H26v4.9H5.5c-1.1,0-2,0.9-2,2s0.9,2,2,2H26v4.9H5.5   c-1.1,0-2,0.9-2,2s0.9,2,2,2h74c0.5,0,1-0.2,1.4-0.5l15-13.9c0.8-0.7,0.9-2,0.1-2.8c-0.7-0.8-2-0.9-2.8-0.1L78.7,73.7H57.8v-4.9   h21.7c0.5,0,1-0.2,1.4-0.5l15-13.9c0.8-0.7,0.9-2,0.1-2.8c-0.7-0.8-2-0.9-2.8-0.1L78.7,64.7H57.8v-4.9h21.7c0.5,0,1-0.2,1.4-0.5   l15-13.9c0.8-0.7,0.9-2,0.1-2.8c-0.7-0.8-2-0.9-2.8-0.1L78.7,55.8H57.8v-4.9H79.5z M78.7,37.9H60.2l10.6-9.9c0,0,0.1,0,0.1,0h18.4   L78.7,37.9z M21.3,28.1h16l-10.6,9.8c0,0,0,0,0,0h-16L21.3,28.1z M30,73.7V40.2l15-13.9h21.9L54.4,37.9c-0.4,0.4-0.6,0.9-0.6,1.5   v34.3H30z"
    />
    <path style="color: #fff; fill: #fff;" d="M34.8,48.8H41c1.3,0,2.4,0.9,2.9,2.1h-9.1v2.7h9.1c-0.5,1.2-1.6,2.1-2.9,2.1h-7.5l11.9,12.6l1.8-1.9l-7.6-8h1.5   c2.7-0.1,4.9-2.1,5.5-4.8h3.7v-2.7h-3.7c-0.2-0.8-0.5-1.5-0.9-2.1h4.6v-2.7H34.8V48.8z"
    />
  </g>
</svg>
