<svg xmlns="http://www.w3.org/2000/svg" xmlns:xlink="http://www.w3.org/1999/xlink" version="1.1" x="0px" y="0px" viewBox="0 0 100 125" enable-background="new 0 0 100 100" xml:space="preserve"><g><g><g><path style="fill:#fff;" d="M50,90c-9.181,0-17.821-3.034-24.986-8.774l1.613-2.014c6.702,5.369,14.785,8.207,23.373,8.207     c8.591,0,16.675-2.839,23.377-8.211l1.613,2.014C67.825,86.964,59.185,90,50,90z"/><path style="fill:#fff;" d="M25.014,81.226C15.473,73.581,10,62.199,10,50C10,27.944,27.944,10,50,10S90,27.944,90,50     c0,12.199-5.471,23.579-15.01,31.222l-1.613-2.014C82.301,72.057,87.419,61.411,87.419,50c0-20.633-16.787-37.419-37.419-37.419     S12.581,29.367,12.581,50c0,11.411,5.12,22.059,14.046,29.212L25.014,81.226z"/></g><path style="fill:#fff;" d="M24.312,58.348c-5.166,0-9.369-4.204-9.369-9.37s4.202-9.37,9.369-9.37s9.37,4.204,9.37,9.37S29.478,58.348,24.312,58.348    z M24.312,42.188c-3.742,0-6.788,3.046-6.788,6.789c0,3.744,3.046,6.789,6.788,6.789c3.744,0,6.789-3.046,6.789-6.789    C31.101,45.234,28.056,42.188,24.312,42.188z"/><path style="fill:#fff;" d="M33.672,65.99c-2.526-2.432-5.851-3.771-9.36-3.771c-3.344,0-6.554,1.232-9.034,3.469l-1.729-1.915    c2.956-2.666,6.778-4.134,10.762-4.134c4.18,0,8.14,1.595,11.149,4.492L33.672,65.99z"/><path style="fill:#fff;" d="M75.688,58.348c-5.166,0-9.37-4.204-9.37-9.37s4.204-9.37,9.37-9.37s9.369,4.204,9.369,9.37S80.854,58.348,75.688,58.348z     M75.688,42.188c-3.744,0-6.789,3.046-6.789,6.789c0,3.744,3.046,6.789,6.789,6.789c3.742,0,6.788-3.046,6.788-6.789    C82.476,45.234,79.43,42.188,75.688,42.188z"/><path style="fill:#fff;" d="M66.419,65.903l-1.772-1.875c2.998-2.831,6.918-4.39,11.041-4.39c3.983,0,7.805,1.468,10.761,4.132l-1.729,1.918    c-2.481-2.237-5.689-3.469-9.032-3.469C72.227,62.219,68.935,63.528,66.419,65.903z"/><path style="fill:#fff;" d="M50.003,58.367c-8.179,0-14.832-6.654-14.832-14.834s6.653-14.832,14.832-14.832s14.832,6.653,14.832,14.832    S58.182,58.367,50.003,58.367z M50.003,31.281c-6.755,0-12.252,5.496-12.252,12.252c0,6.757,5.496,12.253,12.252,12.253    s12.252-5.496,12.252-12.253C62.254,36.778,56.758,31.281,50.003,31.281z"/><path style="fill:#fff;" d="M27.078,80.507l-2.515-0.577c2.733-11.937,13.194-20.273,25.44-20.273c12.243,0,22.704,8.335,25.439,20.27l-2.515,0.577    c-2.465-10.755-11.891-18.266-22.923-18.266C38.968,62.238,29.541,69.75,27.078,80.507z"/></g></g></svg>