<svg xmlns="http://www.w3.org/2000/svg" xmlns:xlink="http://www.w3.org/1999/xlink" version="1.1" x="0px" y="0px" viewBox="0 0 16 20"
  style="enable-background:new 0 0 16 16;" xml:space="preserve">
  <path style="fill: #fff;" d="M12.5,14h-3C9.224,14,9,13.776,9,13.5V10H7v3.5C7,13.776,6.776,14,6.5,14h-3C3.224,14,3,13.776,3,13.5V8H1.5  C1.294,8,1.109,7.874,1.034,7.682C0.959,7.49,1.01,7.272,1.161,7.133l6.5-6c0.192-0.177,0.487-0.176,0.678,0l6.5,6  c0.151,0.14,0.202,0.357,0.127,0.549S14.706,8,14.5,8H13v5.5C13,13.776,12.776,14,12.5,14z M10,13h2V7.5C12,7.224,12.224,7,12.5,7  h0.721L8,2.181L2.779,7H3.5C3.776,7,4,7.224,4,7.5V13h2V9.5C6,9.224,6.224,9,6.5,9h3C9.776,9,10,9.224,10,9.5V13z"
  />
</svg>
