<svg xmlns="http://www.w3.org/2000/svg" xmlns:xlink="http://www.w3.org/1999/xlink" version="1.1" x="0px" y="0px" viewBox="0 0 76.1 91.5" enable-background="new 0 0 76.1 73.2" xml:space="preserve"><path style="fill:#fff;" d="M68.5,64.5H23.6c-3.2,0-5.8-2.6-5.8-5.8v-24c0-3.2,2.6-5.8,5.8-5.8h44.9c3.2,0,5.8,2.6,5.8,5.8v24  C74.3,61.9,71.7,64.5,68.5,64.5z M23.6,32.9c-1,0-1.8,0.8-1.8,1.8v24c0,1,0.8,1.8,1.8,1.8h44.9c1,0,1.8-0.8,1.8-1.8v-24  c0-1-0.8-1.8-1.8-1.8H23.6z"/><g><polygon style="fill:#fff;" points="34.8,29 49.2,14.6 44.2,9.6 24.9,29  "/><polygon style="fill:#fff;" points="18,36 6.8,47.1 11.8,52 18,45.9  "/></g><g><polygon style="fill:#fff;" points="44.6,29 47.4,26.1 46,24.7 41.8,29  "/></g><g><path style="fill:#fff;" d="M18,58.7v-1.9L4.7,43.6c-1.1-1.1-1.1-2.9,0-4L36.4,7.9c0.5-0.5,1.2-0.8,2-0.8c0.7,0,1.4,0.3,2,0.8l17,17   c0.5,0.5,0.8,1.2,0.8,2c0,0.7-0.3,1.5-0.8,2l0,0.1h2.4c0.3-1,0.5-1.4,0.5-2.1c0-1.3-0.5-2.5-1.4-3.4l-17-17   c-0.9-0.9-2.1-1.4-3.4-1.4c-1.3,0-2.5,0.5-3.4,1.4L3.2,38.2c-1.9,1.9-1.9,4.9,0,6.8L18,59.7C18,59.3,18,59,18,58.7z"/></g><path style="fill:#fff;" d="M66,42c0,0.7-0.5,1.2-1.2,1.2h-7.3c-0.7,0-1.2-0.5-1.2-1.2v-4.2c0-0.7,0.6-1.2,1.2-1.2h7.3c0.7,0,1.2,0.6,1.2,1.2V42z"/><path style="fill:#fff;" d="M33.1,45.3c0,0.5-0.4,0.9-0.9,0.9h-5.5c-0.5,0-0.9-0.4-0.9-0.9v-3.2c0-0.5,0.4-0.9,0.9-0.9h5.5c0.5,0,0.9,0.4,0.9,0.9V45.3z  "/><line style="fill:#fff;" fill="#fff" x1="26" y1="50.5" x2="33" y2="50.5"/><rect style="fill:#fff;" x="26" y="49.5" width="7" height="2"/><line style="fill:#fff;" fill="#fff" x1="35" y1="50.5" x2="42" y2="50.5"/><rect style="fill:#fff;" x="35" y="49.5" width="7" height="2"/><line style="fill:#fff;" fill="#fff" x1="44.1" y1="50.5" x2="51" y2="50.5"/><rect style="fill:#fff;" x="44.1" y="49.5" width="6.8" height="2"/><line style="fill:#fff;" fill="#fff" x1="53" y1="50.5" x2="60" y2="50.5"/><rect style="fill:#fff;" x="53" y="49.5" width="7" height="2"/><line style="fill:#fff;" fill="#fff" x1="26" y1="55.5" x2="52.6" y2="55.5"/><rect style="fill:#fff;" x="26" y="54.5" width="26.6" height="2"/></svg>