<svg xmlns="http://www.w3.org/2000/svg" xmlns:xlink="http://www.w3.org/1999/xlink" version="1.1" x="0px" y="0px" viewBox="0 0 95 118.75"
  enable-background="new 0 0 95 95" xml:space="preserve">
  <g>
    <path style="color: #fff; fill: #fff;" d="M47.501,4.874c-23.543,0-42.627,19.084-42.627,42.627c0,23.541,19.084,42.625,42.627,42.625s42.625-19.084,42.625-42.625   C90.126,23.958,71.044,4.874,47.501,4.874z M68.021,78.376l-0.873-1.514c-0.646-1.117-2.072-1.498-3.188-0.855   c-1.117,0.645-1.498,2.072-0.854,3.189l0.873,1.514c-4.307,2.141-9.088,3.469-14.146,3.783v-5.742c0-1.289-1.045-2.334-2.334-2.334   c-1.287,0-2.332,1.045-2.332,2.334v5.742c-5.057-0.314-9.838-1.643-14.146-3.783l0.875-1.516c0.645-1.117,0.262-2.543-0.855-3.188   c-1.113-0.645-2.541-0.262-3.186,0.854l-0.875,1.516c-4.1-2.73-7.623-6.256-10.354-10.355l1.514-0.875   c1.117-0.645,1.5-2.07,0.854-3.188c-0.643-1.115-2.07-1.496-3.186-0.854l-1.516,0.875c-2.143-4.307-3.471-9.088-3.785-14.146h5.742   c1.289,0,2.334-1.045,2.334-2.334c0-1.287-1.045-2.332-2.334-2.332h-5.742c0.314-5.059,1.643-9.84,3.785-14.146l1.514,0.875   c1.115,0.645,2.543,0.262,3.188-0.855c0.645-1.113,0.262-2.541-0.855-3.186l-1.512-0.873c2.73-4.102,6.254-7.625,10.354-10.355   l0.875,1.514c0.645,1.115,2.072,1.498,3.189,0.854c1.115-0.643,1.496-2.07,0.852-3.188l-0.875-1.514   c4.307-2.143,9.088-3.471,14.146-3.783v5.74c0,1.289,1.045,2.334,2.332,2.334c1.289,0,2.334-1.045,2.334-2.334v-5.74   c5.059,0.313,9.84,1.641,14.146,3.781l-0.875,1.516c-0.645,1.117-0.262,2.543,0.854,3.188s2.543,0.262,3.188-0.855l0.875-1.512   c4.1,2.73,7.625,6.254,10.355,10.355l-1.514,0.873c-1.117,0.645-1.498,2.072-0.855,3.188c0.645,1.115,2.072,1.498,3.189,0.854   l1.514-0.875c2.141,4.309,3.469,9.09,3.783,14.146h-5.742c-1.289,0-2.334,1.045-2.334,2.332c0,1.289,1.045,2.334,2.334,2.334h5.742   c-0.314,5.059-1.643,9.84-3.783,14.146l-1.516-0.875c-1.117-0.645-2.543-0.262-3.188,0.854s-0.262,2.543,0.855,3.188l1.514,0.875   C75.646,72.12,72.12,75.646,68.021,78.376z"
    />
    <path style="color: #fff; fill: #fff;" d="M49.833,45.271l-1-20.547c0-1.232-0.045-2.23-1.332-2.23c-1.289,0-1.334,0.998-1.334,2.23l-0.922,18.963l-10.971-5.361   c-0.75-0.434-1.383-0.748-2.025,0.371c-0.645,1.113-0.059,1.506,0.693,1.938l11.59,7.805c0.4,1.264,1.57,2.188,2.969,2.188   c1.727,0,3.125-1.398,3.125-3.125c0-0.803-0.311-1.527-0.809-2.082C49.821,45.37,49.833,45.321,49.833,45.271z"
    />
  </g>
</svg>
