<svg xmlns="http://www.w3.org/2000/svg" xmlns:xlink="http://www.w3.org/1999/xlink" version="1.1" x="0px" y="0px" viewBox="0 0 100 125" style="enable-background:new 0 0 100 100;" xml:space="preserve"><g><path style="fill: #fff;" d="M50,16.3c-18.8,0-34,15.1-34,33.7c0,9.1,3.6,17.5,10,23.9c6.4,6.3,14.9,9.8,24,9.8s17.6-3.5,24-9.8   c6.5-6.3,10-14.8,10-23.9C84,31.4,68.8,16.3,50,16.3z M50,22.6c15.3,0,27.7,12.3,27.7,27.4c0,6.3-2.1,12.2-6,17   c-5.9-5.6-13.6-8.7-21.7-8.7c-8.1,0-15.8,3.1-21.7,8.7c-3.9-4.8-6-10.7-6-17C22.3,34.9,34.7,22.6,50,22.6z M32.8,71.4   c4.7-4.4,10.8-6.9,17.2-6.9c6.4,0,12.5,2.5,17.2,6.9c-4.9,3.8-10.9,5.9-17.2,5.9C43.7,77.4,37.7,75.3,32.8,71.4z"/><path style="fill: #fff;" d="M50.2,55.2c6.9,0,12.5-5.6,12.5-12.4c0-6.8-5.6-12.4-12.5-12.4S37.7,36,37.7,42.8C37.7,49.6,43.3,55.2,50.2,55.2z    M50.2,36.7c3.4,0,6.2,2.7,6.2,6.1c0,3.3-2.8,6.1-6.2,6.1c-3.4,0-6.2-2.7-6.2-6.1C44,39.4,46.8,36.7,50.2,36.7z"/></g></svg>