<svg xmlns="http://www.w3.org/2000/svg" xmlns:xlink="http://www.w3.org/1999/xlink" version="1.1" x="0px" y="0px" viewBox="-223 25 512 640"
  style="enable-background:new -223 25 512 512;" xml:space="preserve">
  <style type="text/css">
    .st0 {
	  color: #fff;
      display: none;
    }

    .st1 {
	  color: #fff;
      display: inline;
    }

    .st2 {
      color: #fff;
      stroke: #000000;
      stroke-width: 0.1;
      stroke-miterlimit: 10;
    }

  </style>
  <g class="st0">
    <g class="st1">
      <rect style="color: #fff; fill: #fff;" x="-223" y="25" class="st2" width="512" height="512" />
      <line style="color: #fff; fill: #fff;" class="st2" x1="-223" y1="521" x2="289" y2="521" />
      <line class="st2" x1="-223" y1="505" x2="289" y2="505" />
      <line class="st2" x1="-223" y1="489" x2="289" y2="489" />
      <line class="st2" x1="-223" y1="473" x2="289" y2="473" />
      <line class="st2" x1="-223" y1="457" x2="289" y2="457" />
      <line class="st2" x1="-223" y1="441" x2="289" y2="441" />
      <line class="st2" x1="-223" y1="425" x2="289" y2="425" />
      <line class="st2" x1="-223" y1="409" x2="289" y2="409" />
      <line class="st2" x1="-223" y1="393" x2="289" y2="393" />
      <line class="st2" x1="-223" y1="377" x2="289" y2="377" />
      <line class="st2" x1="-223" y1="361" x2="289" y2="361" />
      <line class="st2" x1="-223" y1="345" x2="289" y2="345" />
      <line class="st2" x1="-223" y1="329" x2="289" y2="329" />
      <line class="st2" x1="-223" y1="313" x2="289" y2="313" />
      <line class="st2" x1="-223" y1="297" x2="289" y2="297" />
      <line class="st2" x1="-223" y1="281" x2="289" y2="281" />
      <line class="st2" x1="-223" y1="265" x2="289" y2="265" />
      <line class="st2" x1="-223" y1="249" x2="289" y2="249" />
      <line class="st2" x1="-223" y1="233" x2="289" y2="233" />
      <line class="st2" x1="-223" y1="217" x2="289" y2="217" />
      <line class="st2" x1="-223" y1="201" x2="289" y2="201" />
      <line class="st2" x1="-223" y1="185" x2="289" y2="185" />
      <line class="st2" x1="-223" y1="169" x2="289" y2="169" />
      <line class="st2" x1="-223" y1="153" x2="289" y2="153" />
      <line class="st2" x1="-223" y1="137" x2="289" y2="137" />
      <line class="st2" x1="-223" y1="121" x2="289" y2="121" />
      <line class="st2" x1="-223" y1="105" x2="289" y2="105" />
      <line class="st2" x1="-223" y1="89" x2="289" y2="89" />
      <line class="st2" x1="-223" y1="73" x2="289" y2="73" />
      <line class="st2" x1="-223" y1="57" x2="289" y2="57" />
      <line class="st2" x1="-223" y1="41" x2="289" y2="41" />
      <line class="st2" x1="273" y1="25" x2="273" y2="537" />
      <line class="st2" x1="257" y1="25" x2="257" y2="537" />
      <line class="st2" x1="241" y1="25" x2="241" y2="537" />
      <line class="st2" x1="225" y1="25" x2="225" y2="537" />
      <line class="st2" x1="209" y1="25" x2="209" y2="537" />
      <line class="st2" x1="193" y1="25" x2="193" y2="537" />
      <line class="st2" x1="177" y1="25" x2="177" y2="537" />
      <line class="st2" x1="161" y1="25" x2="161" y2="537" />
      <line class="st2" x1="145" y1="25" x2="145" y2="537" />
      <line class="st2" x1="129" y1="25" x2="129" y2="537" />
      <line class="st2" x1="113" y1="25" x2="113" y2="537" />
      <line class="st2" x1="97" y1="25" x2="97" y2="537" />
      <line class="st2" x1="81" y1="25" x2="81" y2="537" />
      <line class="st2" x1="65" y1="25" x2="65" y2="537" />
      <line class="st2" x1="49" y1="25" x2="49" y2="537" />
      <line class="st2" x1="33" y1="25" x2="33" y2="537" />
      <line class="st2" x1="17" y1="25" x2="17" y2="537" />
      <line class="st2" x1="1" y1="25" x2="1" y2="537" />
      <line class="st2" x1="-15" y1="25" x2="-15" y2="537" />
      <line class="st2" x1="-31" y1="25" x2="-31" y2="537" />
      <line class="st2" x1="-47" y1="25" x2="-47" y2="537" />
      <line class="st2" x1="-63" y1="25" x2="-63" y2="537" />
      <line class="st2" x1="-79" y1="25" x2="-79" y2="537" />
      <line class="st2" x1="-95" y1="25" x2="-95" y2="537" />
      <line class="st2" x1="-111" y1="25" x2="-111" y2="537" />
      <line class="st2" x1="-127" y1="25" x2="-127" y2="537" />
      <line class="st2" x1="-143" y1="25" x2="-143" y2="537" />
      <line class="st2" x1="-159" y1="25" x2="-159" y2="537" />
      <line class="st2" x1="-175" y1="25" x2="-175" y2="537" />
      <line class="st2" x1="-191" y1="25" x2="-191" y2="537" />
      <line class="st2" x1="-207" y1="25" x2="-207" y2="537" />
    </g>
  </g>
  <g>
    <rect style="color: #fff; fill: #fff;" x="-54.5" y="215" width="174.9" height="20.6" />
    <rect style="color: #fff; fill: #fff;" x="-54.5" y="267.1" width="174.9" height="20.6" />
    <rect style="color: #fff; fill: #fff;" x="-54.5" y="319.1" width="174.9" height="20.6" />
    <rect style="color: #fff; fill: #fff;" x="-54.5" y="371.2" width="174.9" height="20.6" />
    <path style="color: #fff; fill: #fff;" d="M105.4,133.8v-13.1H64.7C64.7,103.2,50.5,89,33,89S1.3,103.2,1.3,120.7h-40.7v13.1h-61.5V473h267.8V133.8   H105.4z M80.8,130.9l6.2,3.2l6.2-3.2l-1.2,6.9l5,4.9l-6.9,1L87,150l-3.1-6.3l-6.9-1l5-4.9L80.8,130.9z M-27.2,130.9l6.2,3.2   l6.2-3.2l-1.2,6.9l5,4.9l-6.9,1L-21,150l-3.1-6.3l-6.9-1l5-4.9L-27.2,130.9z M146.3,452.4H-80.3v-298h40.9v9.3h144.9v-9.3h40.9v298   H146.3z"
    />
  </g>
</svg>
